<mxfile host="65bd71144e">
    <diagram id="C03Dv9k_8tI_BpTyPAFo" name="main1">
        <mxGraphModel dx="1930" dy="973" grid="1" gridSize="10" guides="1" tooltips="1" connect="1" arrows="1" fold="1" page="1" pageScale="1" pageWidth="827" pageHeight="1169" math="0" shadow="0">
            <root>
                <mxCell id="0"/>
                <mxCell id="1" parent="0"/>
                <mxCell id="2" value="" style="edgeStyle=none;html=1;" parent="1" source="3" target="16" edge="1">
                    <mxGeometry relative="1" as="geometry"/>
                </mxCell>
                <mxCell id="3" value="&lt;font style=&quot;font-size: 14px;&quot;&gt;เริ่ม&lt;/font&gt;" style="rounded=1;whiteSpace=wrap;html=1;fontSize=14;" parent="1" vertex="1">
                    <mxGeometry x="360" y="40" width="80" height="40" as="geometry"/>
                </mxCell>
                <mxCell id="4" value="" style="edgeStyle=none;html=1;" parent="1" source="5" target="10" edge="1">
                    <mxGeometry relative="1" as="geometry"/>
                </mxCell>
                <mxCell id="5" value="แสดงเลข IP ทั้งหมด&lt;br style=&quot;font-size: 14px;&quot;&gt;ที่ลิสต์ได้" style="strokeWidth=1;html=1;shape=mxgraph.flowchart.display;whiteSpace=wrap;fontSize=14;" parent="1" vertex="1">
                    <mxGeometry x="145" y="420" width="150" height="60" as="geometry"/>
                </mxCell>
                <mxCell id="6" value="ใช่" style="edgeStyle=none;html=1;entryX=0.5;entryY=0;entryDx=0;entryDy=0;exitX=0;exitY=0.5;exitDx=0;exitDy=0;fontSize=14;" parent="1" source="8" target="14" edge="1">
                    <mxGeometry x="-0.2308" relative="1" as="geometry">
                        <Array as="points">
                            <mxPoint x="220" y="260"/>
                        </Array>
                        <mxPoint as="offset"/>
                    </mxGeometry>
                </mxCell>
                <mxCell id="7" value="ไม่" style="edgeStyle=none;html=1;entryX=0.5;entryY=0;entryDx=0;entryDy=0;exitX=1;exitY=0.5;exitDx=0;exitDy=0;fontSize=14;" parent="1" source="8" target="12" edge="1">
                    <mxGeometry x="-0.2308" relative="1" as="geometry">
                        <Array as="points">
                            <mxPoint x="580" y="260"/>
                        </Array>
                        <mxPoint as="offset"/>
                    </mxGeometry>
                </mxCell>
                <mxCell id="8" value="เลือกเลขไอพีจากลิสต์&lt;br style=&quot;font-size: 14px;&quot;&gt;หรือกรอกด้วยตนเอง" style="rhombus;whiteSpace=wrap;html=1;fontSize=14;" parent="1" vertex="1">
                    <mxGeometry x="310" y="210" width="180" height="100" as="geometry"/>
                </mxCell>
                <mxCell id="9" style="edgeStyle=none;html=1;entryX=0;entryY=0.5;entryDx=0;entryDy=0;exitX=0.5;exitY=1;exitDx=0;exitDy=0;" parent="1" source="10" target="20" edge="1">
                    <mxGeometry relative="1" as="geometry">
                        <Array as="points">
                            <mxPoint x="220" y="640"/>
                        </Array>
                    </mxGeometry>
                </mxCell>
                <mxCell id="10" value="เลือกเลข IP ที่ต้องการจากช่องลิสต์" style="rounded=0;whiteSpace=wrap;html=1;fontSize=14;" parent="1" vertex="1">
                    <mxGeometry x="145" y="525" width="150" height="60" as="geometry"/>
                </mxCell>
                <mxCell id="11" style="edgeStyle=none;html=1;entryX=1;entryY=0.5;entryDx=0;entryDy=0;" parent="1" source="12" target="20" edge="1">
                    <mxGeometry relative="1" as="geometry">
                        <Array as="points">
                            <mxPoint x="580" y="640"/>
                        </Array>
                    </mxGeometry>
                </mxCell>
                <mxCell id="12" value="กรอกเลข IP ที่ต้องการ&lt;br style=&quot;font-size: 14px;&quot;&gt;เข้าไปเอง" style="rounded=0;whiteSpace=wrap;html=1;fontSize=14;" parent="1" vertex="1">
                    <mxGeometry x="510" y="310" width="140" height="60" as="geometry"/>
                </mxCell>
                <mxCell id="13" value="" style="edgeStyle=none;html=1;" parent="1" source="14" target="5" edge="1">
                    <mxGeometry relative="1" as="geometry"/>
                </mxCell>
                <mxCell id="14" value="&lt;span style=&quot;font-size: 14px;&quot;&gt;ลิสต์เลข IP ของคอมพิวเตอร์ทั้งหมด&lt;/span&gt;&lt;br style=&quot;border-color: var(--border-color); font-size: 14px;&quot;&gt;&lt;span style=&quot;font-size: 14px;&quot;&gt;ในโครงข่าย&lt;/span&gt;" style="rounded=0;whiteSpace=wrap;html=1;strokeWidth=1;fontSize=14;" parent="1" vertex="1">
                    <mxGeometry x="145" y="310" width="150" height="60" as="geometry"/>
                </mxCell>
                <mxCell id="15" value="" style="edgeStyle=none;html=1;" parent="1" source="16" target="8" edge="1">
                    <mxGeometry relative="1" as="geometry"/>
                </mxCell>
                <mxCell id="16" value="แสดงหน้าต่าง UI" style="strokeWidth=1;html=1;shape=mxgraph.flowchart.display;whiteSpace=wrap;fontSize=14;" parent="1" vertex="1">
                    <mxGeometry x="331.25" y="120" width="137.5" height="50" as="geometry"/>
                </mxCell>
                <mxCell id="17" value="" style="edgeStyle=none;html=1;" parent="1" source="18" target="21" edge="1">
                    <mxGeometry relative="1" as="geometry"/>
                </mxCell>
                <mxCell id="18" value="ส่งผ่านลิสต์ของเลข IP ที่เลือกมาไปยัง Scanner" style="rounded=0;whiteSpace=wrap;html=1;strokeWidth=1;fontSize=14;" parent="1" vertex="1">
                    <mxGeometry x="322.5" y="700" width="155" height="60" as="geometry"/>
                </mxCell>
                <mxCell id="19" value="" style="edgeStyle=none;html=1;" parent="1" source="20" target="18" edge="1">
                    <mxGeometry relative="1" as="geometry"/>
                </mxCell>
                <mxCell id="20" value="" style="ellipse;whiteSpace=wrap;html=1;aspect=fixed;strokeWidth=1;" parent="1" vertex="1">
                    <mxGeometry x="390" y="630" width="20" height="20" as="geometry"/>
                </mxCell>
                <mxCell id="21" value="m1" style="shape=offPageConnector;whiteSpace=wrap;html=1;" parent="1" vertex="1">
                    <mxGeometry x="380" y="800" width="40" height="40" as="geometry"/>
                </mxCell>
            </root>
        </mxGraphModel>
    </diagram>
    <diagram id="dUUsimjr_x462hAnNfNp" name="main2">
        <mxGraphModel dx="1470" dy="719" grid="1" gridSize="10" guides="1" tooltips="1" connect="1" arrows="1" fold="1" page="1" pageScale="1" pageWidth="827" pageHeight="1169" math="0" shadow="0">
            <root>
                <mxCell id="0"/>
                <mxCell id="1" parent="0"/>
                <mxCell id="RMNZmyQ17XLfPhbesvZS-1" value="แบบเต็ม" style="edgeStyle=none;html=1;entryX=0.5;entryY=0;entryDx=0;entryDy=0;exitX=1;exitY=0.5;exitDx=0;exitDy=0;fontSize=14;" edge="1" parent="1" source="RMNZmyQ17XLfPhbesvZS-3" target="RMNZmyQ17XLfPhbesvZS-7">
                    <mxGeometry x="0.3333" relative="1" as="geometry">
                        <Array as="points">
                            <mxPoint x="540" y="170"/>
                        </Array>
                        <mxPoint as="offset"/>
                    </mxGeometry>
                </mxCell>
                <mxCell id="RMNZmyQ17XLfPhbesvZS-2" value="แบบเร็ว" style="edgeStyle=none;html=1;entryX=0.5;entryY=0;entryDx=0;entryDy=0;exitX=0;exitY=0.5;exitDx=0;exitDy=0;fontSize=14;" edge="1" parent="1" source="RMNZmyQ17XLfPhbesvZS-3" target="RMNZmyQ17XLfPhbesvZS-5">
                    <mxGeometry x="0.3333" relative="1" as="geometry">
                        <Array as="points">
                            <mxPoint x="260.5" y="170"/>
                        </Array>
                        <mxPoint as="offset"/>
                    </mxGeometry>
                </mxCell>
                <mxCell id="RMNZmyQ17XLfPhbesvZS-3" value="เลือกโหมดการสแกน&lt;br&gt;แบบเร็วหรือแบบเต็ม" style="rhombus;whiteSpace=wrap;html=1;fontSize=14;" vertex="1" parent="1">
                    <mxGeometry x="312.5" y="120" width="180" height="100" as="geometry"/>
                </mxCell>
                <mxCell id="RMNZmyQ17XLfPhbesvZS-4" style="edgeStyle=none;html=1;entryX=0;entryY=0.5;entryDx=0;entryDy=0;exitX=0.5;exitY=1;exitDx=0;exitDy=0;" edge="1" parent="1" source="RMNZmyQ17XLfPhbesvZS-5" target="RMNZmyQ17XLfPhbesvZS-9">
                    <mxGeometry relative="1" as="geometry">
                        <Array as="points">
                            <mxPoint x="261" y="360"/>
                        </Array>
                    </mxGeometry>
                </mxCell>
                <mxCell id="RMNZmyQ17XLfPhbesvZS-5" value="ตั้งค่าพารามิเตอร์ให้สแกนแค่ port ที่รู้จักกันดี" style="rounded=0;whiteSpace=wrap;html=1;strokeWidth=1;fontSize=14;" vertex="1" parent="1">
                    <mxGeometry x="180" y="260" width="160" height="60" as="geometry"/>
                </mxCell>
                <mxCell id="RMNZmyQ17XLfPhbesvZS-6" style="edgeStyle=none;html=1;entryX=1;entryY=0.5;entryDx=0;entryDy=0;exitX=0.5;exitY=1;exitDx=0;exitDy=0;" edge="1" parent="1" source="RMNZmyQ17XLfPhbesvZS-7" target="RMNZmyQ17XLfPhbesvZS-9">
                    <mxGeometry relative="1" as="geometry">
                        <Array as="points">
                            <mxPoint x="541" y="360"/>
                        </Array>
                    </mxGeometry>
                </mxCell>
                <mxCell id="RMNZmyQ17XLfPhbesvZS-7" value="ตั้งค่าพารามิเตอร์ให้สแกนทุก port ที่เป็นไปได้" style="rounded=0;whiteSpace=wrap;html=1;strokeWidth=1;fontSize=14;" vertex="1" parent="1">
                    <mxGeometry x="460" y="260" width="160" height="60" as="geometry"/>
                </mxCell>
                <mxCell id="RMNZmyQ17XLfPhbesvZS-8" value="" style="edgeStyle=none;html=1;" edge="1" parent="1" source="RMNZmyQ17XLfPhbesvZS-9" target="RMNZmyQ17XLfPhbesvZS-25">
                    <mxGeometry relative="1" as="geometry"/>
                </mxCell>
                <mxCell id="RMNZmyQ17XLfPhbesvZS-9" value="" style="ellipse;whiteSpace=wrap;html=1;aspect=fixed;strokeWidth=1;" vertex="1" parent="1">
                    <mxGeometry x="388.75" y="350" width="20" height="20" as="geometry"/>
                </mxCell>
                <mxCell id="RMNZmyQ17XLfPhbesvZS-10" value="" style="edgeStyle=none;html=1;" edge="1" parent="1" source="RMNZmyQ17XLfPhbesvZS-11" target="RMNZmyQ17XLfPhbesvZS-13">
                    <mxGeometry relative="1" as="geometry"/>
                </mxCell>
                <mxCell id="RMNZmyQ17XLfPhbesvZS-11" value="ทำการสแกน port ของโปรโตคอล TCP และบันทึกผล" style="rounded=0;whiteSpace=wrap;html=1;strokeWidth=1;fontSize=14;" vertex="1" parent="1">
                    <mxGeometry x="140" y="600" width="180" height="60" as="geometry"/>
                </mxCell>
                <mxCell id="RMNZmyQ17XLfPhbesvZS-12" value="" style="edgeStyle=none;html=1;" edge="1" parent="1" source="RMNZmyQ17XLfPhbesvZS-13" target="RMNZmyQ17XLfPhbesvZS-27">
                    <mxGeometry relative="1" as="geometry"/>
                </mxCell>
                <mxCell id="RMNZmyQ17XLfPhbesvZS-13" value="ทำการสแกน port ของโปรโตคอล UDP และบันทึกผล" style="rounded=0;whiteSpace=wrap;html=1;strokeWidth=1;fontSize=14;" vertex="1" parent="1">
                    <mxGeometry x="141.25" y="700" width="180" height="60" as="geometry"/>
                </mxCell>
                <mxCell id="RMNZmyQ17XLfPhbesvZS-14" value="&lt;font style=&quot;font-size: 14px;&quot;&gt;จบ&lt;/font&gt;" style="rounded=1;whiteSpace=wrap;html=1;fontSize=14;" vertex="1" parent="1">
                    <mxGeometry x="535.62" y="800" width="91.25" height="40" as="geometry"/>
                </mxCell>
                <mxCell id="RMNZmyQ17XLfPhbesvZS-15" value="" style="edgeStyle=none;html=1;fontSize=14;" edge="1" parent="1" source="RMNZmyQ17XLfPhbesvZS-16" target="RMNZmyQ17XLfPhbesvZS-14">
                    <mxGeometry relative="1" as="geometry"/>
                </mxCell>
                <mxCell id="RMNZmyQ17XLfPhbesvZS-16" value="แสดงผลช่องโหว่ที่ตรวจพบ" style="strokeWidth=1;html=1;shape=mxgraph.flowchart.display;whiteSpace=wrap;fontSize=14;" vertex="1" parent="1">
                    <mxGeometry x="491.25" y="700" width="182.5" height="60" as="geometry"/>
                </mxCell>
                <mxCell id="RMNZmyQ17XLfPhbesvZS-17" value="" style="edgeStyle=none;html=1;fontSize=14;" edge="1" parent="1" source="RMNZmyQ17XLfPhbesvZS-18" target="RMNZmyQ17XLfPhbesvZS-16">
                    <mxGeometry relative="1" as="geometry"/>
                </mxCell>
                <mxCell id="RMNZmyQ17XLfPhbesvZS-18" value="วิเคราะห์ผลลัพธ์จากการสแกน" style="rounded=0;whiteSpace=wrap;html=1;strokeWidth=1;fontSize=14;" vertex="1" parent="1">
                    <mxGeometry x="492.5" y="600" width="180" height="60" as="geometry"/>
                </mxCell>
                <mxCell id="RMNZmyQ17XLfPhbesvZS-19" value="" style="edgeStyle=none;html=1;" edge="1" parent="1" source="RMNZmyQ17XLfPhbesvZS-20" target="RMNZmyQ17XLfPhbesvZS-3">
                    <mxGeometry relative="1" as="geometry"/>
                </mxCell>
                <mxCell id="RMNZmyQ17XLfPhbesvZS-20" value="m1" style="shape=offPageConnector;whiteSpace=wrap;html=1;" vertex="1" parent="1">
                    <mxGeometry x="380" y="40" width="40" height="40" as="geometry"/>
                </mxCell>
                <mxCell id="RMNZmyQ17XLfPhbesvZS-21" style="edgeStyle=none;html=1;entryX=0.5;entryY=0;entryDx=0;entryDy=0;exitX=0;exitY=0.5;exitDx=0;exitDy=0;" edge="1" parent="1" source="RMNZmyQ17XLfPhbesvZS-23" target="RMNZmyQ17XLfPhbesvZS-11">
                    <mxGeometry relative="1" as="geometry">
                        <mxPoint x="328.75" y="520" as="sourcePoint"/>
                        <Array as="points">
                            <mxPoint x="230" y="520"/>
                        </Array>
                    </mxGeometry>
                </mxCell>
                <mxCell id="RMNZmyQ17XLfPhbesvZS-22" style="edgeStyle=none;html=1;entryX=0.5;entryY=0;entryDx=0;entryDy=0;exitX=0.951;exitY=0.5;exitDx=0;exitDy=0;exitPerimeter=0;" edge="1" parent="1" source="RMNZmyQ17XLfPhbesvZS-23" target="RMNZmyQ17XLfPhbesvZS-18">
                    <mxGeometry relative="1" as="geometry">
                        <mxPoint x="480" y="520" as="sourcePoint"/>
                        <Array as="points">
                            <mxPoint x="582.25" y="520"/>
                        </Array>
                    </mxGeometry>
                </mxCell>
                <mxCell id="RMNZmyQ17XLfPhbesvZS-23" value="สแกนเลข IP ครบ&lt;br&gt;ทุกตัวที่เลือกไว้หรือยัง" style="rhombus;whiteSpace=wrap;html=1;fontSize=14;" vertex="1" parent="1">
                    <mxGeometry x="308.75" y="470" width="180" height="100" as="geometry"/>
                </mxCell>
                <mxCell id="RMNZmyQ17XLfPhbesvZS-24" value="" style="edgeStyle=none;html=1;" edge="1" parent="1" source="RMNZmyQ17XLfPhbesvZS-25" target="RMNZmyQ17XLfPhbesvZS-23">
                    <mxGeometry relative="1" as="geometry"/>
                </mxCell>
                <mxCell id="RMNZmyQ17XLfPhbesvZS-25" value="" style="ellipse;whiteSpace=wrap;html=1;aspect=fixed;strokeWidth=1;" vertex="1" parent="1">
                    <mxGeometry x="388.75" y="410" width="20" height="20" as="geometry"/>
                </mxCell>
                <mxCell id="RMNZmyQ17XLfPhbesvZS-26" style="edgeStyle=none;html=1;entryX=0;entryY=0.5;entryDx=0;entryDy=0;exitX=0.5;exitY=1;exitDx=0;exitDy=0;" edge="1" parent="1" source="RMNZmyQ17XLfPhbesvZS-27" target="RMNZmyQ17XLfPhbesvZS-25">
                    <mxGeometry relative="1" as="geometry">
                        <Array as="points">
                            <mxPoint x="231" y="900"/>
                            <mxPoint x="80" y="900"/>
                            <mxPoint x="80" y="420"/>
                        </Array>
                    </mxGeometry>
                </mxCell>
                <mxCell id="RMNZmyQ17XLfPhbesvZS-27" value="ทำการเลือกเลข IP ตัวต่อไปมาทำการสแกนจนกว่าจะครบ" style="rounded=0;whiteSpace=wrap;html=1;strokeWidth=1;fontSize=14;" vertex="1" parent="1">
                    <mxGeometry x="141.25" y="800" width="180" height="60" as="geometry"/>
                </mxCell>
            </root>
        </mxGraphModel>
    </diagram>
    <diagram id="742bd_5WL9fXfJ1B5YK7" name="class">
        <mxGraphModel dx="1331" dy="671" grid="1" gridSize="10" guides="1" tooltips="1" connect="1" arrows="1" fold="1" page="1" pageScale="1" pageWidth="1169" pageHeight="1654" math="0" shadow="0">
            <root>
                <mxCell id="0"/>
                <mxCell id="1" parent="0"/>
                <mxCell id="dt07fXTn3B6dhhq8khEG-1" value="Host" style="swimlane;fontStyle=1;align=center;verticalAlign=top;childLayout=stackLayout;horizontal=1;startSize=26;horizontalStack=0;resizeParent=1;resizeParentMax=0;resizeLast=0;collapsible=1;marginBottom=0;strokeColor=default;fontFamily=Helvetica;fontSize=14;fontColor=default;fillColor=none;html=1;" parent="1" vertex="1">
                    <mxGeometry x="180" y="199" width="356" height="164" as="geometry"/>
                </mxCell>
                <mxCell id="dt07fXTn3B6dhhq8khEG-2" value="- ipv4 : std::net::IpAddr" style="text;strokeColor=none;fillColor=none;align=left;verticalAlign=top;spacingLeft=4;spacingRight=4;overflow=hidden;rotatable=0;points=[[0,0.5],[1,0.5]];portConstraint=eastwest;fontFamily=Helvetica;fontSize=14;fontColor=default;startSize=26;html=1;" parent="dt07fXTn3B6dhhq8khEG-1" vertex="1">
                    <mxGeometry y="26" width="356" height="26" as="geometry"/>
                </mxCell>
                <mxCell id="dt07fXTn3B6dhhq8khEG-3" value="" style="line;strokeWidth=1;fillColor=none;align=left;verticalAlign=middle;spacingTop=-1;spacingLeft=3;spacingRight=3;rotatable=0;labelPosition=right;points=[];portConstraint=eastwest;strokeColor=inherit;fontFamily=Helvetica;fontSize=14;fontColor=default;startSize=26;html=1;" parent="dt07fXTn3B6dhhq8khEG-1" vertex="1">
                    <mxGeometry y="52" width="356" height="8" as="geometry"/>
                </mxCell>
                <mxCell id="dt07fXTn3B6dhhq8khEG-4" value="+ new(mode: usize, ipv4_str: &amp;amp;String) : Result&amp;lt;Host, ()&amp;gt;" style="text;strokeColor=none;fillColor=none;align=left;verticalAlign=top;spacingLeft=4;spacingRight=4;overflow=hidden;rotatable=0;points=[[0,0.5],[1,0.5]];portConstraint=eastwest;fontFamily=Helvetica;fontSize=14;fontColor=default;startSize=26;html=1;" parent="dt07fXTn3B6dhhq8khEG-1" vertex="1">
                    <mxGeometry y="60" width="356" height="26" as="geometry"/>
                </mxCell>
                <mxCell id="dt07fXTn3B6dhhq8khEG-5" value="+ scan() : None" style="text;strokeColor=none;fillColor=none;align=left;verticalAlign=top;spacingLeft=4;spacingRight=4;overflow=hidden;rotatable=0;points=[[0,0.5],[1,0.5]];portConstraint=eastwest;fontFamily=Helvetica;fontSize=14;fontColor=default;startSize=26;html=1;" parent="dt07fXTn3B6dhhq8khEG-1" vertex="1">
                    <mxGeometry y="86" width="356" height="26" as="geometry"/>
                </mxCell>
                <mxCell id="dt07fXTn3B6dhhq8khEG-6" value="- tcpScan() : None" style="text;strokeColor=none;fillColor=none;align=left;verticalAlign=top;spacingLeft=4;spacingRight=4;overflow=hidden;rotatable=0;points=[[0,0.5],[1,0.5]];portConstraint=eastwest;fontFamily=Helvetica;fontSize=14;fontColor=default;startSize=26;html=1;" parent="dt07fXTn3B6dhhq8khEG-1" vertex="1">
                    <mxGeometry y="112" width="356" height="26" as="geometry"/>
                </mxCell>
                <mxCell id="dt07fXTn3B6dhhq8khEG-7" value="- udpScan() : None" style="text;strokeColor=none;fillColor=none;align=left;verticalAlign=top;spacingLeft=4;spacingRight=4;overflow=hidden;rotatable=0;points=[[0,0.5],[1,0.5]];portConstraint=eastwest;fontFamily=Helvetica;fontSize=14;fontColor=default;startSize=26;html=1;" parent="dt07fXTn3B6dhhq8khEG-1" vertex="1">
                    <mxGeometry y="138" width="356" height="26" as="geometry"/>
                </mxCell>
                <mxCell id="dt07fXTn3B6dhhq8khEG-8" style="edgeStyle=none;html=1;entryX=1;entryY=0.5;entryDx=0;entryDy=0;endArrow=diamondThin;endFill=1;endSize=16;fontSize=14;" parent="1" source="dt07fXTn3B6dhhq8khEG-9" target="dt07fXTn3B6dhhq8khEG-2" edge="1">
                    <mxGeometry relative="1" as="geometry"/>
                </mxCell>
                <mxCell id="dt07fXTn3B6dhhq8khEG-9" value="ScanMode" style="swimlane;fontStyle=1;align=center;verticalAlign=top;childLayout=stackLayout;horizontal=1;startSize=26;horizontalStack=0;resizeParent=1;resizeParentMax=0;resizeLast=0;collapsible=1;marginBottom=0;fontSize=14;" parent="1" vertex="1">
                    <mxGeometry x="720" y="78" width="390" height="320" as="geometry"/>
                </mxCell>
                <mxCell id="dt07fXTn3B6dhhq8khEG-10" value="- lowerRange : u16" style="text;strokeColor=none;fillColor=none;align=left;verticalAlign=top;spacingLeft=4;spacingRight=4;overflow=hidden;rotatable=0;points=[[0,0.5],[1,0.5]];portConstraint=eastwest;fontSize=14;" parent="dt07fXTn3B6dhhq8khEG-9" vertex="1">
                    <mxGeometry y="26" width="390" height="26" as="geometry"/>
                </mxCell>
                <mxCell id="dt07fXTn3B6dhhq8khEG-11" value="- upperRange : u16" style="text;strokeColor=none;fillColor=none;align=left;verticalAlign=top;spacingLeft=4;spacingRight=4;overflow=hidden;rotatable=0;points=[[0,0.5],[1,0.5]];portConstraint=eastwest;fontSize=14;" parent="dt07fXTn3B6dhhq8khEG-9" vertex="1">
                    <mxGeometry y="52" width="390" height="26" as="geometry"/>
                </mxCell>
                <mxCell id="dt07fXTn3B6dhhq8khEG-12" value="- portList : Option&lt;Vec&lt;u16&gt;&gt;" style="text;strokeColor=none;fillColor=none;align=left;verticalAlign=top;spacingLeft=4;spacingRight=4;overflow=hidden;rotatable=0;points=[[0,0.5],[1,0.5]];portConstraint=eastwest;fontSize=14;" parent="dt07fXTn3B6dhhq8khEG-9" vertex="1">
                    <mxGeometry y="78" width="390" height="26" as="geometry"/>
                </mxCell>
                <mxCell id="NVW2j17F0ks0ixbVmMyi-5" value="- partition_size: usize" style="text;strokeColor=none;fillColor=none;align=left;verticalAlign=top;spacingLeft=4;spacingRight=4;overflow=hidden;rotatable=0;points=[[0,0.5],[1,0.5]];portConstraint=eastwest;fontSize=14;" vertex="1" parent="dt07fXTn3B6dhhq8khEG-9">
                    <mxGeometry y="104" width="390" height="26" as="geometry"/>
                </mxCell>
                <mxCell id="dt07fXTn3B6dhhq8khEG-13" value="" style="line;strokeWidth=1;fillColor=none;align=left;verticalAlign=middle;spacingTop=-1;spacingLeft=3;spacingRight=3;rotatable=0;labelPosition=right;points=[];portConstraint=eastwest;strokeColor=inherit;fontSize=14;" parent="dt07fXTn3B6dhhq8khEG-9" vertex="1">
                    <mxGeometry y="130" width="390" height="8" as="geometry"/>
                </mxCell>
                <mxCell id="dt07fXTn3B6dhhq8khEG-14" value="+ new(usize) : ScanMode" style="text;strokeColor=none;fillColor=none;align=left;verticalAlign=top;spacingLeft=4;spacingRight=4;overflow=hidden;rotatable=0;points=[[0,0.5],[1,0.5]];portConstraint=eastwest;fontSize=14;" parent="dt07fXTn3B6dhhq8khEG-9" vertex="1">
                    <mxGeometry y="138" width="390" height="26" as="geometry"/>
                </mxCell>
                <mxCell id="dt07fXTn3B6dhhq8khEG-15" value="+ get_limit() : (u16, u16)" style="text;strokeColor=none;fillColor=none;align=left;verticalAlign=top;spacingLeft=4;spacingRight=4;overflow=hidden;rotatable=0;points=[[0,0.5],[1,0.5]];portConstraint=eastwest;fontSize=14;" parent="dt07fXTn3B6dhhq8khEG-9" vertex="1">
                    <mxGeometry y="164" width="390" height="26" as="geometry"/>
                </mxCell>
                <mxCell id="dt07fXTn3B6dhhq8khEG-17" value="+ get_portlist() : Option&lt;Vec&lt;u16&gt;&gt;" style="text;strokeColor=none;fillColor=none;align=left;verticalAlign=top;spacingLeft=4;spacingRight=4;overflow=hidden;rotatable=0;points=[[0,0.5],[1,0.5]];portConstraint=eastwest;fontSize=14;" parent="dt07fXTn3B6dhhq8khEG-9" vertex="1">
                    <mxGeometry y="190" width="390" height="26" as="geometry"/>
                </mxCell>
                <mxCell id="dt07fXTn3B6dhhq8khEG-16" value="+ get_subset(subset_no: usize) : Option&lt;Vec&lt;u16&gt;&gt;" style="text;strokeColor=none;fillColor=none;align=left;verticalAlign=top;spacingLeft=4;spacingRight=4;overflow=hidden;rotatable=0;points=[[0,0.5],[1,0.5]];portConstraint=eastwest;fontSize=14;" parent="dt07fXTn3B6dhhq8khEG-9" vertex="1">
                    <mxGeometry y="216" width="390" height="26" as="geometry"/>
                </mxCell>
                <mxCell id="NVW2j17F0ks0ixbVmMyi-2" value="- subset_len() : usize" style="text;strokeColor=none;fillColor=none;align=left;verticalAlign=top;spacingLeft=4;spacingRight=4;overflow=hidden;rotatable=0;points=[[0,0.5],[1,0.5]];portConstraint=eastwest;fontSize=14;" vertex="1" parent="dt07fXTn3B6dhhq8khEG-9">
                    <mxGeometry y="242" width="390" height="26" as="geometry"/>
                </mxCell>
                <mxCell id="NVW2j17F0ks0ixbVmMyi-4" value="- portlist_slicer(portlist: &amp;Vec&lt;u16&gt;) : Vec&lt;u16&gt;" style="text;strokeColor=none;fillColor=none;align=left;verticalAlign=top;spacingLeft=4;spacingRight=4;overflow=hidden;rotatable=0;points=[[0,0.5],[1,0.5]];portConstraint=eastwest;fontSize=14;" vertex="1" parent="dt07fXTn3B6dhhq8khEG-9">
                    <mxGeometry y="268" width="390" height="26" as="geometry"/>
                </mxCell>
                <mxCell id="NVW2j17F0ks0ixbVmMyi-6" value="- limit_to_subset(a: u16, b: u16) : Vec&lt;u16&gt;" style="text;strokeColor=none;fillColor=none;align=left;verticalAlign=top;spacingLeft=4;spacingRight=4;overflow=hidden;rotatable=0;points=[[0,0.5],[1,0.5]];portConstraint=eastwest;fontSize=14;" vertex="1" parent="dt07fXTn3B6dhhq8khEG-9">
                    <mxGeometry y="294" width="390" height="26" as="geometry"/>
                </mxCell>
            </root>
        </mxGraphModel>
    </diagram>
    <diagram id="SD2JyPX853iG1Ch7eDGZ" name="tcp">
        <mxGraphModel dx="1470" dy="719" grid="1" gridSize="10" guides="1" tooltips="1" connect="1" arrows="1" fold="1" page="1" pageScale="1" pageWidth="827" pageHeight="1169" math="0" shadow="0">
            <root>
                <mxCell id="0"/>
                <mxCell id="1" parent="0"/>
                <mxCell id="YbZH0VPDN4MeDgn2lJAN-1" style="edgeStyle=none;html=1;entryX=1;entryY=0.5;entryDx=0;entryDy=0;exitX=0.5;exitY=1;exitDx=0;exitDy=0;fontSize=14;" edge="1" parent="1" source="YbZH0VPDN4MeDgn2lJAN-2" target="YbZH0VPDN4MeDgn2lJAN-28">
                    <mxGeometry relative="1" as="geometry">
                        <Array as="points">
                            <mxPoint x="200" y="650"/>
                        </Array>
                    </mxGeometry>
                </mxCell>
                <mxCell id="YbZH0VPDN4MeDgn2lJAN-2" value="เลือก port ลำดับถัดไปมาทำการสแกน" style="rounded=0;whiteSpace=wrap;html=1;fontSize=14;" vertex="1" parent="1">
                    <mxGeometry x="130" y="540" width="140" height="60" as="geometry"/>
                </mxCell>
                <mxCell id="YbZH0VPDN4MeDgn2lJAN-3" value="ใช่" style="edgeStyle=none;html=1;entryX=0.5;entryY=0;entryDx=0;entryDy=0;exitX=0;exitY=0.5;exitDx=0;exitDy=0;fontSize=14;" edge="1" parent="1" source="YbZH0VPDN4MeDgn2lJAN-5" target="YbZH0VPDN4MeDgn2lJAN-9">
                    <mxGeometry relative="1" as="geometry">
                        <Array as="points">
                            <mxPoint x="275" y="335"/>
                        </Array>
                    </mxGeometry>
                </mxCell>
                <mxCell id="YbZH0VPDN4MeDgn2lJAN-4" value="ไม่" style="edgeStyle=none;html=1;entryX=0.5;entryY=0;entryDx=0;entryDy=0;exitX=1;exitY=0.5;exitDx=0;exitDy=0;fontSize=14;" edge="1" parent="1" source="YbZH0VPDN4MeDgn2lJAN-5" target="YbZH0VPDN4MeDgn2lJAN-31">
                    <mxGeometry x="-0.8772" relative="1" as="geometry">
                        <Array as="points">
                            <mxPoint x="680" y="335"/>
                        </Array>
                        <mxPoint as="offset"/>
                    </mxGeometry>
                </mxCell>
                <mxCell id="YbZH0VPDN4MeDgn2lJAN-5" value="สแกนครบทุก port ตามค่า&lt;br style=&quot;font-size: 14px;&quot;&gt;พารามิเตอร์ที่กำหนดไว้แล้ว?" style="rhombus;whiteSpace=wrap;html=1;fontSize=14;" vertex="1" parent="1">
                    <mxGeometry x="372" y="280" width="216" height="110" as="geometry"/>
                </mxCell>
                <mxCell id="YbZH0VPDN4MeDgn2lJAN-6" value="" style="edgeStyle=none;html=1;fontSize=14;" edge="1" parent="1" source="YbZH0VPDN4MeDgn2lJAN-7" target="YbZH0VPDN4MeDgn2lJAN-5">
                    <mxGeometry relative="1" as="geometry"/>
                </mxCell>
                <mxCell id="YbZH0VPDN4MeDgn2lJAN-7" value="" style="ellipse;whiteSpace=wrap;html=1;aspect=fixed;fontSize=14;" vertex="1" parent="1">
                    <mxGeometry x="470" y="220" width="20" height="20" as="geometry"/>
                </mxCell>
                <mxCell id="YbZH0VPDN4MeDgn2lJAN-8" value="" style="edgeStyle=none;html=1;fontSize=14;" edge="1" parent="1" source="YbZH0VPDN4MeDgn2lJAN-9" target="YbZH0VPDN4MeDgn2lJAN-16">
                    <mxGeometry relative="1" as="geometry"/>
                </mxCell>
                <mxCell id="YbZH0VPDN4MeDgn2lJAN-9" value="สร้าง thread แยกขึ้นมาเพื่อดำเนินการสแกน" style="rounded=0;whiteSpace=wrap;html=1;fontSize=14;" vertex="1" parent="1">
                    <mxGeometry x="200" y="380" width="150" height="60" as="geometry"/>
                </mxCell>
                <mxCell id="YbZH0VPDN4MeDgn2lJAN-10" value="" style="edgeStyle=none;html=1;fontSize=14;" edge="1" parent="1" source="YbZH0VPDN4MeDgn2lJAN-11" target="YbZH0VPDN4MeDgn2lJAN-13">
                    <mxGeometry relative="1" as="geometry"/>
                </mxCell>
                <mxCell id="YbZH0VPDN4MeDgn2lJAN-11" value="&lt;font style=&quot;font-size: 14px;&quot;&gt;เริ่ม&lt;/font&gt;" style="rounded=1;whiteSpace=wrap;html=1;fontSize=14;" vertex="1" parent="1">
                    <mxGeometry x="440" y="40" width="80" height="40" as="geometry"/>
                </mxCell>
                <mxCell id="YbZH0VPDN4MeDgn2lJAN-12" value="" style="edgeStyle=none;html=1;fontSize=14;" edge="1" parent="1" source="YbZH0VPDN4MeDgn2lJAN-13" target="YbZH0VPDN4MeDgn2lJAN-7">
                    <mxGeometry relative="1" as="geometry"/>
                </mxCell>
                <mxCell id="YbZH0VPDN4MeDgn2lJAN-13" value="เริ่มเตรียมค่าตัวแปรต่างๆที่ต้องใช้ก่อนทำการสแกนโปรโตคอล TCP" style="rounded=0;whiteSpace=wrap;html=1;fontSize=14;" vertex="1" parent="1">
                    <mxGeometry x="375" y="120" width="210" height="60" as="geometry"/>
                </mxCell>
                <mxCell id="YbZH0VPDN4MeDgn2lJAN-14" value="main thread" style="edgeStyle=none;html=1;entryX=0.5;entryY=0;entryDx=0;entryDy=0;fontSize=14;" edge="1" parent="1" source="YbZH0VPDN4MeDgn2lJAN-16" target="YbZH0VPDN4MeDgn2lJAN-2">
                    <mxGeometry x="0.4783" relative="1" as="geometry">
                        <Array as="points">
                            <mxPoint x="200" y="480"/>
                        </Array>
                        <mxPoint as="offset"/>
                    </mxGeometry>
                </mxCell>
                <mxCell id="YbZH0VPDN4MeDgn2lJAN-15" value="thread ที่ Nth" style="edgeStyle=none;html=1;entryX=0.5;entryY=0;entryDx=0;entryDy=0;fontSize=14;" edge="1" parent="1" source="YbZH0VPDN4MeDgn2lJAN-16" target="YbZH0VPDN4MeDgn2lJAN-18">
                    <mxGeometry x="0.6129" relative="1" as="geometry">
                        <Array as="points">
                            <mxPoint x="380" y="480"/>
                        </Array>
                        <mxPoint as="offset"/>
                    </mxGeometry>
                </mxCell>
                <mxCell id="YbZH0VPDN4MeDgn2lJAN-16" value="" style="ellipse;whiteSpace=wrap;html=1;aspect=fixed;fontSize=14;" vertex="1" parent="1">
                    <mxGeometry x="265" y="470" width="20" height="20" as="geometry"/>
                </mxCell>
                <mxCell id="YbZH0VPDN4MeDgn2lJAN-17" value="" style="edgeStyle=none;html=1;fontSize=14;" edge="1" parent="1" source="YbZH0VPDN4MeDgn2lJAN-18" target="YbZH0VPDN4MeDgn2lJAN-20">
                    <mxGeometry relative="1" as="geometry"/>
                </mxCell>
                <mxCell id="YbZH0VPDN4MeDgn2lJAN-18" value="ทำการสแกน port ที่เลือกมาสแกน" style="rounded=0;whiteSpace=wrap;html=1;fontSize=14;" vertex="1" parent="1">
                    <mxGeometry x="308.75" y="540" width="140" height="60" as="geometry"/>
                </mxCell>
                <mxCell id="YbZH0VPDN4MeDgn2lJAN-19" value="" style="edgeStyle=none;html=1;fontSize=14;" edge="1" parent="1" source="YbZH0VPDN4MeDgn2lJAN-20" target="YbZH0VPDN4MeDgn2lJAN-22">
                    <mxGeometry relative="1" as="geometry"/>
                </mxCell>
                <mxCell id="YbZH0VPDN4MeDgn2lJAN-20" value="ล็อคทรัพยากรที่ใช้ร่วมกันเพื่อป้องกัน thread ตัวอื่นมาเขียนซ้อน" style="rounded=0;whiteSpace=wrap;html=1;fontSize=14;" vertex="1" parent="1">
                    <mxGeometry x="278.13" y="640" width="201.25" height="60" as="geometry"/>
                </mxCell>
                <mxCell id="YbZH0VPDN4MeDgn2lJAN-21" value="" style="edgeStyle=none;html=1;fontSize=14;" edge="1" parent="1" source="YbZH0VPDN4MeDgn2lJAN-22" target="YbZH0VPDN4MeDgn2lJAN-30">
                    <mxGeometry relative="1" as="geometry"/>
                </mxCell>
                <mxCell id="YbZH0VPDN4MeDgn2lJAN-22" value="บันทึกสถานะของ port ที่สแกนลง&lt;br&gt;ฐานข้อมูล" style="shape=datastore;whiteSpace=wrap;html=1;fontSize=14;" vertex="1" parent="1">
                    <mxGeometry x="316.25" y="740" width="125" height="100" as="geometry"/>
                </mxCell>
                <mxCell id="YbZH0VPDN4MeDgn2lJAN-23" value="thread ที่ Nth" style="edgeStyle=none;html=1;fontSize=14;" edge="1" parent="1" source="YbZH0VPDN4MeDgn2lJAN-24" target="YbZH0VPDN4MeDgn2lJAN-26">
                    <mxGeometry relative="1" as="geometry"/>
                </mxCell>
                <mxCell id="YbZH0VPDN4MeDgn2lJAN-24" value="ปลดล็อคทรัพยากรที่ใช้ร่วมกัน" style="rounded=0;whiteSpace=wrap;html=1;fontSize=14;" vertex="1" parent="1">
                    <mxGeometry x="278.13" y="960" width="201.25" height="60" as="geometry"/>
                </mxCell>
                <mxCell id="YbZH0VPDN4MeDgn2lJAN-25" value="main thread" style="edgeStyle=none;html=1;entryX=0.5;entryY=1;entryDx=0;entryDy=0;exitX=0.5;exitY=1;exitDx=0;exitDy=0;fontSize=14;" edge="1" parent="1" source="YbZH0VPDN4MeDgn2lJAN-26" target="YbZH0VPDN4MeDgn2lJAN-28">
                    <mxGeometry x="-0.5526" relative="1" as="geometry">
                        <Array as="points">
                            <mxPoint x="380" y="1160"/>
                            <mxPoint x="100" y="1160"/>
                        </Array>
                        <mxPoint as="offset"/>
                    </mxGeometry>
                </mxCell>
                <mxCell id="YbZH0VPDN4MeDgn2lJAN-26" value="จบการทำงานของ thread นี้" style="rounded=0;whiteSpace=wrap;html=1;fontSize=14;" vertex="1" parent="1">
                    <mxGeometry x="311.25" y="1080" width="140" height="60" as="geometry"/>
                </mxCell>
                <mxCell id="YbZH0VPDN4MeDgn2lJAN-27" style="edgeStyle=none;html=1;entryX=0;entryY=0.5;entryDx=0;entryDy=0;fontSize=14;" edge="1" parent="1" source="YbZH0VPDN4MeDgn2lJAN-28" target="YbZH0VPDN4MeDgn2lJAN-7">
                    <mxGeometry relative="1" as="geometry">
                        <Array as="points">
                            <mxPoint x="100" y="230"/>
                        </Array>
                    </mxGeometry>
                </mxCell>
                <mxCell id="YbZH0VPDN4MeDgn2lJAN-28" value="" style="ellipse;whiteSpace=wrap;html=1;aspect=fixed;" vertex="1" parent="1">
                    <mxGeometry x="90" y="640" width="20" height="20" as="geometry"/>
                </mxCell>
                <mxCell id="YbZH0VPDN4MeDgn2lJAN-29" value="" style="edgeStyle=none;html=1;fontSize=14;" edge="1" parent="1" source="YbZH0VPDN4MeDgn2lJAN-30" target="YbZH0VPDN4MeDgn2lJAN-24">
                    <mxGeometry relative="1" as="geometry"/>
                </mxCell>
                <mxCell id="YbZH0VPDN4MeDgn2lJAN-30" value="แสดงผลลัพธ์&lt;br style=&quot;font-size: 14px;&quot;&gt;การสแกน" style="strokeWidth=1;html=1;shape=mxgraph.flowchart.display;whiteSpace=wrap;fontSize=14;" vertex="1" parent="1">
                    <mxGeometry x="311.25" y="880" width="137.5" height="50" as="geometry"/>
                </mxCell>
                <mxCell id="YbZH0VPDN4MeDgn2lJAN-31" value="&lt;font style=&quot;font-size: 14px;&quot;&gt;จบ&lt;/font&gt;" style="rounded=1;whiteSpace=wrap;html=1;fontSize=14;" vertex="1" parent="1">
                    <mxGeometry x="640" y="1090" width="80" height="40" as="geometry"/>
                </mxCell>
            </root>
        </mxGraphModel>
    </diagram>
    <diagram id="YDaNHHsGsKVHdhjCezfU" name="udp">
        <mxGraphModel dx="1470" dy="719" grid="1" gridSize="10" guides="1" tooltips="1" connect="1" arrows="1" fold="1" page="1" pageScale="1" pageWidth="827" pageHeight="1169" math="0" shadow="0">
            <root>
                <mxCell id="0"/>
                <mxCell id="1" parent="0"/>
                <mxCell id="XsjUHx0hbVt1j6T77t58-1" style="edgeStyle=none;html=1;entryX=1;entryY=0.5;entryDx=0;entryDy=0;exitX=0.5;exitY=1;exitDx=0;exitDy=0;fontSize=14;" edge="1" parent="1" source="XsjUHx0hbVt1j6T77t58-2" target="XsjUHx0hbVt1j6T77t58-28">
                    <mxGeometry relative="1" as="geometry">
                        <Array as="points">
                            <mxPoint x="200" y="650"/>
                        </Array>
                    </mxGeometry>
                </mxCell>
                <mxCell id="XsjUHx0hbVt1j6T77t58-2" value="เลือก port ลำดับถัดไปมาทำการสแกน" style="rounded=0;whiteSpace=wrap;html=1;fontSize=14;" vertex="1" parent="1">
                    <mxGeometry x="130" y="540" width="140" height="60" as="geometry"/>
                </mxCell>
                <mxCell id="XsjUHx0hbVt1j6T77t58-3" value="ใช่" style="edgeStyle=none;html=1;entryX=0.5;entryY=0;entryDx=0;entryDy=0;exitX=0;exitY=0.5;exitDx=0;exitDy=0;fontSize=14;" edge="1" parent="1" source="XsjUHx0hbVt1j6T77t58-5" target="XsjUHx0hbVt1j6T77t58-9">
                    <mxGeometry relative="1" as="geometry">
                        <Array as="points">
                            <mxPoint x="275" y="335"/>
                        </Array>
                    </mxGeometry>
                </mxCell>
                <mxCell id="XsjUHx0hbVt1j6T77t58-4" value="ไม่" style="edgeStyle=none;html=1;entryX=0.5;entryY=0;entryDx=0;entryDy=0;exitX=1;exitY=0.5;exitDx=0;exitDy=0;fontSize=14;" edge="1" parent="1" source="XsjUHx0hbVt1j6T77t58-5" target="XsjUHx0hbVt1j6T77t58-31">
                    <mxGeometry x="-0.8772" relative="1" as="geometry">
                        <Array as="points">
                            <mxPoint x="680" y="335"/>
                        </Array>
                        <mxPoint as="offset"/>
                    </mxGeometry>
                </mxCell>
                <mxCell id="XsjUHx0hbVt1j6T77t58-5" value="สแกนครบทุก port ตามค่า&lt;br style=&quot;font-size: 14px;&quot;&gt;พารามิเตอร์ที่กำหนดไว้แล้ว?" style="rhombus;whiteSpace=wrap;html=1;fontSize=14;" vertex="1" parent="1">
                    <mxGeometry x="372" y="280" width="216" height="110" as="geometry"/>
                </mxCell>
                <mxCell id="XsjUHx0hbVt1j6T77t58-6" value="" style="edgeStyle=none;html=1;fontSize=14;" edge="1" parent="1" source="XsjUHx0hbVt1j6T77t58-7" target="XsjUHx0hbVt1j6T77t58-5">
                    <mxGeometry relative="1" as="geometry"/>
                </mxCell>
                <mxCell id="XsjUHx0hbVt1j6T77t58-7" value="" style="ellipse;whiteSpace=wrap;html=1;aspect=fixed;fontSize=14;" vertex="1" parent="1">
                    <mxGeometry x="470" y="220" width="20" height="20" as="geometry"/>
                </mxCell>
                <mxCell id="XsjUHx0hbVt1j6T77t58-8" value="" style="edgeStyle=none;html=1;fontSize=14;" edge="1" parent="1" source="XsjUHx0hbVt1j6T77t58-9" target="XsjUHx0hbVt1j6T77t58-16">
                    <mxGeometry relative="1" as="geometry"/>
                </mxCell>
                <mxCell id="XsjUHx0hbVt1j6T77t58-9" value="สร้าง thread แยกขึ้นมาเพื่อดำเนินการสแกน" style="rounded=0;whiteSpace=wrap;html=1;fontSize=14;" vertex="1" parent="1">
                    <mxGeometry x="200" y="380" width="150" height="60" as="geometry"/>
                </mxCell>
                <mxCell id="XsjUHx0hbVt1j6T77t58-10" value="" style="edgeStyle=none;html=1;fontSize=14;" edge="1" parent="1" source="XsjUHx0hbVt1j6T77t58-11" target="XsjUHx0hbVt1j6T77t58-13">
                    <mxGeometry relative="1" as="geometry"/>
                </mxCell>
                <mxCell id="XsjUHx0hbVt1j6T77t58-11" value="&lt;font style=&quot;font-size: 14px;&quot;&gt;เริ่ม&lt;/font&gt;" style="rounded=1;whiteSpace=wrap;html=1;fontSize=14;" vertex="1" parent="1">
                    <mxGeometry x="440" y="40" width="80" height="40" as="geometry"/>
                </mxCell>
                <mxCell id="XsjUHx0hbVt1j6T77t58-12" value="" style="edgeStyle=none;html=1;fontSize=14;" edge="1" parent="1" source="XsjUHx0hbVt1j6T77t58-13" target="XsjUHx0hbVt1j6T77t58-7">
                    <mxGeometry relative="1" as="geometry"/>
                </mxCell>
                <mxCell id="XsjUHx0hbVt1j6T77t58-13" value="เริ่มเตรียมค่าตัวแปรต่างๆที่ต้องใช้ก่อนทำการสแกนโปรโตคอล UDP" style="rounded=0;whiteSpace=wrap;html=1;fontSize=14;" vertex="1" parent="1">
                    <mxGeometry x="380" y="120" width="200" height="60" as="geometry"/>
                </mxCell>
                <mxCell id="XsjUHx0hbVt1j6T77t58-14" value="main thread" style="edgeStyle=none;html=1;entryX=0.5;entryY=0;entryDx=0;entryDy=0;fontSize=14;" edge="1" parent="1" source="XsjUHx0hbVt1j6T77t58-16" target="XsjUHx0hbVt1j6T77t58-2">
                    <mxGeometry x="0.4783" relative="1" as="geometry">
                        <Array as="points">
                            <mxPoint x="200" y="480"/>
                        </Array>
                        <mxPoint as="offset"/>
                    </mxGeometry>
                </mxCell>
                <mxCell id="XsjUHx0hbVt1j6T77t58-15" value="thread ที่ Nth" style="edgeStyle=none;html=1;entryX=0.5;entryY=0;entryDx=0;entryDy=0;fontSize=14;" edge="1" parent="1" source="XsjUHx0hbVt1j6T77t58-16" target="XsjUHx0hbVt1j6T77t58-18">
                    <mxGeometry x="0.6129" relative="1" as="geometry">
                        <Array as="points">
                            <mxPoint x="380" y="480"/>
                        </Array>
                        <mxPoint as="offset"/>
                    </mxGeometry>
                </mxCell>
                <mxCell id="XsjUHx0hbVt1j6T77t58-16" value="" style="ellipse;whiteSpace=wrap;html=1;aspect=fixed;fontSize=14;" vertex="1" parent="1">
                    <mxGeometry x="265" y="470" width="20" height="20" as="geometry"/>
                </mxCell>
                <mxCell id="XsjUHx0hbVt1j6T77t58-17" value="" style="edgeStyle=none;html=1;fontSize=14;" edge="1" parent="1" source="XsjUHx0hbVt1j6T77t58-18" target="XsjUHx0hbVt1j6T77t58-20">
                    <mxGeometry relative="1" as="geometry"/>
                </mxCell>
                <mxCell id="XsjUHx0hbVt1j6T77t58-18" value="ทำการสแกน port ที่เลือกมาสแกน" style="rounded=0;whiteSpace=wrap;html=1;fontSize=14;" vertex="1" parent="1">
                    <mxGeometry x="308.75" y="540" width="140" height="60" as="geometry"/>
                </mxCell>
                <mxCell id="XsjUHx0hbVt1j6T77t58-19" value="" style="edgeStyle=none;html=1;fontSize=14;" edge="1" parent="1" source="XsjUHx0hbVt1j6T77t58-20" target="XsjUHx0hbVt1j6T77t58-22">
                    <mxGeometry relative="1" as="geometry"/>
                </mxCell>
                <mxCell id="XsjUHx0hbVt1j6T77t58-20" value="ล็อคทรัพยากรที่ใช้ร่วมกันเพื่อป้องกัน thread ตัวอื่นมาเขียนซ้อน" style="rounded=0;whiteSpace=wrap;html=1;fontSize=14;" vertex="1" parent="1">
                    <mxGeometry x="278.13" y="640" width="201.25" height="60" as="geometry"/>
                </mxCell>
                <mxCell id="XsjUHx0hbVt1j6T77t58-21" value="" style="edgeStyle=none;html=1;fontSize=14;" edge="1" parent="1" source="XsjUHx0hbVt1j6T77t58-22" target="XsjUHx0hbVt1j6T77t58-30">
                    <mxGeometry relative="1" as="geometry"/>
                </mxCell>
                <mxCell id="XsjUHx0hbVt1j6T77t58-22" value="บันทึกสถานะของ port ที่สแกนลง&lt;br&gt;ฐานข้อมูล" style="shape=datastore;whiteSpace=wrap;html=1;fontSize=14;" vertex="1" parent="1">
                    <mxGeometry x="316.25" y="740" width="125" height="100" as="geometry"/>
                </mxCell>
                <mxCell id="XsjUHx0hbVt1j6T77t58-23" value="thread ที่ Nth" style="edgeStyle=none;html=1;fontSize=14;" edge="1" parent="1" source="XsjUHx0hbVt1j6T77t58-24" target="XsjUHx0hbVt1j6T77t58-26">
                    <mxGeometry relative="1" as="geometry"/>
                </mxCell>
                <mxCell id="XsjUHx0hbVt1j6T77t58-24" value="ปลดล็อคทรัพยากรที่ใช้ร่วมกัน" style="rounded=0;whiteSpace=wrap;html=1;fontSize=14;" vertex="1" parent="1">
                    <mxGeometry x="278.13" y="960" width="201.25" height="60" as="geometry"/>
                </mxCell>
                <mxCell id="XsjUHx0hbVt1j6T77t58-25" value="main thread" style="edgeStyle=none;html=1;entryX=0.5;entryY=1;entryDx=0;entryDy=0;exitX=0.5;exitY=1;exitDx=0;exitDy=0;fontSize=14;" edge="1" parent="1" source="XsjUHx0hbVt1j6T77t58-26" target="XsjUHx0hbVt1j6T77t58-28">
                    <mxGeometry x="-0.5526" relative="1" as="geometry">
                        <Array as="points">
                            <mxPoint x="380" y="1160"/>
                            <mxPoint x="100" y="1160"/>
                        </Array>
                        <mxPoint as="offset"/>
                    </mxGeometry>
                </mxCell>
                <mxCell id="XsjUHx0hbVt1j6T77t58-26" value="จบการทำงานของ thread นี้" style="rounded=0;whiteSpace=wrap;html=1;fontSize=14;" vertex="1" parent="1">
                    <mxGeometry x="311.25" y="1080" width="140" height="60" as="geometry"/>
                </mxCell>
                <mxCell id="XsjUHx0hbVt1j6T77t58-27" style="edgeStyle=none;html=1;entryX=0;entryY=0.5;entryDx=0;entryDy=0;fontSize=14;" edge="1" parent="1" source="XsjUHx0hbVt1j6T77t58-28" target="XsjUHx0hbVt1j6T77t58-7">
                    <mxGeometry relative="1" as="geometry">
                        <Array as="points">
                            <mxPoint x="100" y="230"/>
                        </Array>
                    </mxGeometry>
                </mxCell>
                <mxCell id="XsjUHx0hbVt1j6T77t58-28" value="" style="ellipse;whiteSpace=wrap;html=1;aspect=fixed;" vertex="1" parent="1">
                    <mxGeometry x="90" y="640" width="20" height="20" as="geometry"/>
                </mxCell>
                <mxCell id="XsjUHx0hbVt1j6T77t58-29" value="" style="edgeStyle=none;html=1;fontSize=14;" edge="1" parent="1" source="XsjUHx0hbVt1j6T77t58-30" target="XsjUHx0hbVt1j6T77t58-24">
                    <mxGeometry relative="1" as="geometry"/>
                </mxCell>
                <mxCell id="XsjUHx0hbVt1j6T77t58-30" value="แสดงผลลัพธ์&lt;br style=&quot;font-size: 14px;&quot;&gt;การสแกน" style="strokeWidth=1;html=1;shape=mxgraph.flowchart.display;whiteSpace=wrap;fontSize=14;" vertex="1" parent="1">
                    <mxGeometry x="311.25" y="880" width="137.5" height="50" as="geometry"/>
                </mxCell>
                <mxCell id="XsjUHx0hbVt1j6T77t58-31" value="&lt;font style=&quot;font-size: 14px;&quot;&gt;จบ&lt;/font&gt;" style="rounded=1;whiteSpace=wrap;html=1;fontSize=14;" vertex="1" parent="1">
                    <mxGeometry x="640" y="1090" width="80" height="40" as="geometry"/>
                </mxCell>
            </root>
        </mxGraphModel>
    </diagram>
</mxfile>